<?xml version="1.0" encoding="utf-8"?>
<!-- Generator: Adobe Illustrator 21.0.2, SVG Export Plug-In . SVG Version: 6.00 Build 0)  -->
<!DOCTYPE svg PUBLIC "-//W3C//DTD SVG 1.1//EN" "http://www.w3.org/Graphics/SVG/1.1/DTD/svg11.dtd">
<svg version="1.1" id="Layer_1" xmlns="http://www.w3.org/2000/svg" xmlns:xlink="http://www.w3.org/1999/xlink" x="0px" y="0px"
	 viewBox="0 0 21 21" style="enable-background:new 0 0 21 21;" xml:space="preserve">
<style type="text/css">
	.st0{fill:#FFFFFF;}
</style>
<g>
	<path class="st0" d="M6.9,10.3c0.6-0.7,0.8-1.5,0.8-2c0-2.2-1.3-5.6-3.8-5.6c-0.8,0-1.6,0.4-2.1,1C1.2,4.4,1.1,5.2,1.1,6
		c0,2.1,1.1,5.1,3.7,5.1C5.6,11.1,6.4,10.9,6.9,10.3z"/>
	<path class="st0" d="M0,16.5c1.4-1.1,3.7-0.9,4.9-0.9C4.5,15,4,14.4,4,13.5c0-0.5,0.2-0.8,0.3-1.2c-0.3,0-0.7,0.1-1,0.1
		c-1.4,0-2.5-0.5-3.3-1.2V16.5z"/>
	<path class="st0" d="M9.9,20.5c0-1.6-1.7-2.4-4-4.1c-0.2,0-0.4,0-0.7,0c-0.3,0-1.9,0.1-3.2,0.5c-0.4,0.2-1.4,0.5-2,1.3v1.2
		C0,20.5,0.9,21,2,21h7.8C9.9,20.9,9.9,20.8,9.9,20.5z"/>
	<path class="st0" d="M17.2,7.2v3.9h-1.7V7.2h-3.9V5.6h3.9V1.7h1.7v3.9H21V2c0-1.4-0.8-2-1.9-2H2C0.9,0,0,0.6,0,2v1.6
		c0.1-0.1,0.1-0.1,0.2-0.2C1.9,2,3.8,1.7,5.4,1.7h6.4l-1.7,1.4c0,0-1.6,0-1.9,0c0.7,0.6,1.9,1.8,1.9,3.9c0,2.3-1.2,3.3-2.5,4.3
		c-0.4,0.4-0.9,0.8-0.9,1.5c0,0.7,0.5,1,0.8,1.3L8.7,15c1.3,1.1,3.1,2.4,3.1,4.6c0,0.5-0.1,1-0.2,1.5h7.5c1.1,0,1.9-0.5,1.9-1.6V7.2
		H17.2z"/>
</g>
</svg>
