<?xml version="1.0" encoding="utf-8"?>
<!-- Generator: Adobe Illustrator 21.0.2, SVG Export Plug-In . SVG Version: 6.00 Build 0)  -->
<!DOCTYPE svg PUBLIC "-//W3C//DTD SVG 1.1//EN" "http://www.w3.org/Graphics/SVG/1.1/DTD/svg11.dtd">
<svg version="1.1" id="Layer_1" xmlns="http://www.w3.org/2000/svg" xmlns:xlink="http://www.w3.org/1999/xlink" x="0px" y="0px"
	 viewBox="0 0 21 21" style="enable-background:new 0 0 21 21;" xml:space="preserve">
<style type="text/css">
	.st0{fill:#FFFFFF;}
</style>
<path class="st0" d="M19.8,0H1.2C0.5,0,0,0.5,0,1.2v18.7C0,20.5,0.5,21,1.2,21h10.1v-8.1H8.5V9.7h2.7V7.4c0-2.7,1.7-4.2,4.1-4.2
	c1.2,0,2.2,0.1,2.4,0.1v2.8l-1.7,0c-1.3,0-1.6,0.6-1.6,1.5v2h3.1l-0.4,3.2h-2.7V21h5.4c0.6,0,1.2-0.5,1.2-1.2V1.2
	C21,0.5,20.5,0,19.8,0z"/>
</svg>
